<?xml version="1.0" encoding="UTF-8"?>
<svg width="1200pt" height="1200pt" version="1.1" viewBox="0 0 1200 1200" xmlns="http://www.w3.org/2000/svg">
 <g>
  <path d="m1068 120c-6.6289 0-12 5.3672-12 12v936c0 6.6328 5.3711 12 12 12s12-5.3672 12-12v-936c0-6.6328-5.3711-12-12-12z"/>
  <path d="m756 120c-6.6289 0-12 5.3672-12 12v936c0 6.6328 5.3711 12 12 12s12-5.3672 12-12v-936c0-6.6328-5.3711-12-12-12z"/>
  <path d="m912 120c-6.6289 0-12 5.3672-12 12v936c0 6.6328 5.3711 12 12 12s12-5.3672 12-12v-936c0-6.6328-5.3711-12-12-12z"/>
  <path d="m600 120c-6.6289 0-12 5.3672-12 12v936c0 6.6328 5.3711 12 12 12s12-5.3672 12-12v-936c0-6.6328-5.3711-12-12-12z"/>
  <path d="m288 120c-6.6289 0-12 5.3672-12 12v936c0 6.6328 5.3711 12 12 12s12-5.3672 12-12v-936c0-6.6328-5.3711-12-12-12z"/>
  <path d="m444 120c-6.6289 0-12 5.3672-12 12v936c0 6.6328 5.3711 12 12 12s12-5.3672 12-12v-936c0-6.6328-5.3711-12-12-12z"/>
  <path d="m132 120c-6.6289 0-12 5.3672-12 12v936c0 6.6328 5.3711 12 12 12s12-5.3672 12-12v-936c0-6.6328-5.3711-12-12-12z"/>
 </g>
</svg>
