<?xml version="1.0" encoding="UTF-8"?><svg id="Red_Cards" xmlns="http://www.w3.org/2000/svg" viewBox="0 0 158.4 252"><defs><style>.cls-1{fill:none;stroke:#fff;stroke-miterlimit:10;stroke-width:.3px;}.cls-2{fill:#221e1f;}</style></defs><g id="Red-9"><g id="Card_Base"><rect class="cls-2" x="0" width="158.4" height="252" rx="9" ry="9"/></g><g><path class="cls-1" d="m13.89,237.19V88.61C13.89,47.92,46.99,14.81,87.69,14.81h56.83v148.57c0,40.69-33.11,73.8-73.8,73.8H13.89Z"/><path class="cls-1" d="m87.69,7.61h64.03v155.77c0,44.71-36.29,81-81,81H6.69V88.61C6.69,43.91,42.98,7.61,87.69,7.61Z"/><path class="cls-1" d="m21.09,229.99V88.61c0-36.72,29.88-66.6,66.6-66.6h49.62v141.37c0,36.72-29.88,66.6-66.6,66.6H21.09Z"/><path class="cls-1" d="m28.29,222.79V88.61c0-32.75,26.65-59.4,59.4-59.4h42.43v134.17c0,32.75-26.65,59.4-59.4,59.4H28.29Z"/></g></g></svg>